<svg width="46" height="45" viewBox="0 0 46 45" fill="none" xmlns="http://www.w3.org/2000/svg">
<mask id="mask0_3_52" style="mask-type:luminance" maskUnits="userSpaceOnUse" x="0" y="0" width="46" height="45">
<path d="M46 0H0V45H46V0Z" fill="white"/>
</mask>
<g mask="url(#mask0_3_52)">
<path d="M19.4512 32.5241C13.5215 31.8063 9.34373 27.5445 9.34373 22.0267C9.34373 19.7836 10.1523 17.3611 11.5 15.7462C10.916 14.2657 11.0059 11.1255 11.6797 9.82453C13.4765 9.60023 15.9023 10.5423 17.3398 11.8432C19.0469 11.3049 20.8437 11.0358 23.0449 11.0358C25.2461 11.0358 27.043 11.3049 28.6602 11.7984C30.0527 10.5423 32.5235 9.60023 34.3203 9.82453C34.9492 11.0358 35.039 14.176 34.4551 15.7013C35.8926 17.406 36.6562 19.6939 36.6562 22.0267C36.6562 27.5445 32.4785 31.7166 26.459 32.4793C27.9863 33.4662 29.0195 35.6195 29.0195 38.0869V42.7524C29.0195 44.0982 30.1426 44.8608 31.4902 44.3225C39.6211 41.2271 46 33.1073 46 23.0585C46 10.3628 35.668 1.11862e-07 22.9551 0C10.2422 -1.11862e-07 1.12015e-07 10.3628 0 23.0585C-8.78699e-08 33.0176 6.33397 41.272 14.8691 44.3674C16.082 44.816 17.25 44.0085 17.25 42.7972V39.2084C16.6211 39.4776 15.8125 39.657 15.0937 39.657C12.1289 39.657 10.3769 38.042 9.11912 35.0363C8.625 33.8251 8.08596 33.1073 7.05274 32.9727C6.51369 32.9279 6.33397 32.7036 6.33397 32.4344C6.33397 31.896 7.23242 31.4923 8.13088 31.4923C9.43361 31.4923 10.5566 32.2998 11.7246 33.9597C12.6231 35.2606 13.5664 35.8438 14.6894 35.8438C15.8125 35.8438 16.5312 35.4401 17.5644 34.4083C18.3281 33.6456 18.9121 32.9727 19.4512 32.5241Z" fill="black"/>
</g>
</svg>
